<?xml version="1.0" standalone="no"?>
<!DOCTYPE svg PUBLIC "-//W3C//DTD SVG 20010904//EN"
 "http://www.w3.org/TR/2001/REC-SVG-20010904/DTD/svg10.dtd">
<svg version="1.0" xmlns="http://www.w3.org/2000/svg"
 width="370.000000pt" height="370.000000pt" viewBox="0 0 370.000000 370.000000"
 preserveAspectRatio="xMidYMid meet">

<g transform="translate(0.000000,370.000000) scale(0.100000,-0.100000)"
fill="#000000" stroke="none">
<path d="M1727 3376 c-91 -33 -166 -114 -190 -203 l-11 -43 -100 0 c-121 0
-174 -20 -209 -80 l-22 -38 -175 -4 c-175 -3 -176 -3 -242 -36 -78 -38 -144
-106 -173 -178 -19 -48 -20 -75 -23 -1094 -2 -700 1 -1068 8 -1114 6 -37 22
-92 36 -121 35 -75 124 -155 205 -186 l64 -24 945 0 945 0 65 24 c88 33 186
129 221 216 l24 60 0 1090 c0 1260 8 1154 -99 1261 -89 87 -145 104 -354 104
l-157 0 -20 38 c-33 61 -88 82 -212 82 -91 0 -103 2 -103 18 -1 61 -88 172
-167 212 -59 30 -195 39 -256 16z m-537 -592 c0 -88 17 -126 72 -159 32 -19
51 -20 578 -20 527 0 546 1 578 20 55 33 72 71 72 159 l0 76 153 0 c125 0 159
-4 192 -19 51 -23 102 -81 110 -123 3 -18 5 -510 3 -1093 -3 -965 -4 -1063
-20 -1090 -25 -47 -68 -86 -123 -111 l-50 -24 -910 0 c-838 0 -914 1 -958 17
-58 21 -113 71 -138 127 -18 39 -19 91 -19 1109 0 1163 -4 1092 57 1149 52 50
85 57 251 58 l152 0 0 -76z"/>
<path d="M1827 2492 c-10 -10 -17 -33 -17 -50 0 -28 -4 -32 -35 -38 -139 -26
-218 -192 -146 -308 32 -51 89 -81 220 -115 127 -33 151 -49 151 -99 0 -99
-173 -136 -244 -51 -14 17 -26 35 -26 40 0 5 -29 9 -65 9 -80 0 -93 -15 -66
-76 29 -65 92 -109 199 -140 6 -2 12 -17 12 -33 0 -37 23 -61 60 -61 37 0 60
24 60 63 0 31 3 33 51 44 159 38 222 224 115 341 -31 35 -65 50 -188 82 -118
31 -158 56 -158 97 0 107 187 128 235 26 15 -31 19 -33 70 -33 62 0 90 19 79
54 -25 82 -81 137 -161 158 -40 10 -43 13 -43 43 0 57 -66 88 -103 47z"/>
<path d="M1522 1434 c-20 -14 -22 -23 -22 -113 0 -150 -66 -136 622 -136 l580
0 19 24 c16 19 19 39 19 112 0 142 64 129 -618 129 -507 0 -580 -2 -600 -16z"/>
<path d="M946 1424 c-20 -19 -20 -44 -2 -70 13 -17 30 -19 186 -22 118 -2 182
0 201 9 37 15 48 52 24 79 -17 19 -32 20 -206 20 -157 0 -190 -3 -203 -16z"/>
<path d="M946 1164 c-22 -21 -20 -50 4 -74 19 -19 33 -20 200 -20 167 0 181 1
200 20 11 11 20 27 20 35 0 8 -9 24 -20 35 -19 19 -33 20 -204 20 -154 0 -187
-3 -200 -16z"/>
<path d="M952 904 c-27 -18 -29 -55 -4 -77 15 -14 42 -17 155 -17 129 0 137 1
151 22 21 30 20 44 -4 68 -18 18 -33 20 -148 20 -99 0 -132 -3 -150 -16z"/>
<path d="M1522 730 c-19 -18 -22 -31 -22 -100 0 -132 -61 -120 618 -120 l579
0 21 23 c18 20 22 35 22 96 0 63 -3 75 -25 96 l-24 25 -574 0 c-563 0 -574 0
-595 -20z"/>
<path d="M963 650 c-27 -11 -39 -51 -23 -79 10 -20 18 -21 205 -21 163 0 196
3 209 16 22 21 20 47 -4 69 -18 17 -42 19 -193 21 -95 2 -182 -1 -194 -6z"/>
</g>
</svg>
